<?xml version="1.0" encoding="UTF-8" standalone="no"?>
<!DOCTYPE svg PUBLIC "-//W3C//DTD SVG 1.1//EN"
 "http://www.w3.org/Graphics/SVG/1.1/DTD/svg11.dtd">
<!-- Generated by graphviz version 13.1.2 (20250808.2320)
 -->
<!-- Title: Tree Pages: 1 -->
<svg width="1158pt" height="407pt"
 viewBox="0.00 0.00 1158.00 407.00" xmlns="http://www.w3.org/2000/svg" xmlns:xlink="http://www.w3.org/1999/xlink">
<g id="graph0" class="graph" transform="scale(1 1) rotate(0) translate(4 402.75)">
<title>Tree</title>
<polygon fill="white" stroke="none" points="-4,4 -4,-402.75 1154,-402.75 1154,4 -4,4"/>
<!-- 0 -->
<g id="node1" class="node">
<title>0</title>
<path fill="#f5d0b5" stroke="black" d="M609.12,-398.75C609.12,-398.75 467.88,-398.75 467.88,-398.75 461.88,-398.75 455.88,-392.75 455.88,-386.75 455.88,-386.75 455.88,-333.75 455.88,-333.75 455.88,-327.75 461.88,-321.75 467.88,-321.75 467.88,-321.75 609.12,-321.75 609.12,-321.75 615.12,-321.75 621.12,-327.75 621.12,-333.75 621.12,-333.75 621.12,-386.75 621.12,-386.75 621.12,-392.75 615.12,-398.75 609.12,-398.75"/>
<text xml:space="preserve" text-anchor="middle" x="538.5" y="-381.45" font-family="Helvetica,sans-Serif" font-size="14.00">z_Sex_female &lt;= 0.5</text>
<text xml:space="preserve" text-anchor="middle" x="538.5" y="-364.2" font-family="Helvetica,sans-Serif" font-size="14.00">samples = 712</text>
<text xml:space="preserve" text-anchor="middle" x="538.5" y="-346.95" font-family="Helvetica,sans-Serif" font-size="14.00">value = [438, 274]</text>
<text xml:space="preserve" text-anchor="middle" x="538.5" y="-329.7" font-family="Helvetica,sans-Serif" font-size="14.00">class = Good</text>
</g>
<!-- 1 -->
<g id="node2" class="node">
<title>1</title>
<path fill="#eb9e67" stroke="black" d="M529.25,-285.75C529.25,-285.75 367.75,-285.75 367.75,-285.75 361.75,-285.75 355.75,-279.75 355.75,-273.75 355.75,-273.75 355.75,-220.75 355.75,-220.75 355.75,-214.75 361.75,-208.75 367.75,-208.75 367.75,-208.75 529.25,-208.75 529.25,-208.75 535.25,-208.75 541.25,-214.75 541.25,-220.75 541.25,-220.75 541.25,-273.75 541.25,-273.75 541.25,-279.75 535.25,-285.75 529.25,-285.75"/>
<text xml:space="preserve" text-anchor="middle" x="448.5" y="-268.45" font-family="Helvetica,sans-Serif" font-size="14.00">TRUNC_IMP_Age &lt;= 3.5</text>
<text xml:space="preserve" text-anchor="middle" x="448.5" y="-251.2" font-family="Helvetica,sans-Serif" font-size="14.00">samples = 457</text>
<text xml:space="preserve" text-anchor="middle" x="448.5" y="-233.95" font-family="Helvetica,sans-Serif" font-size="14.00">value = [371, 86]</text>
<text xml:space="preserve" text-anchor="middle" x="448.5" y="-216.7" font-family="Helvetica,sans-Serif" font-size="14.00">class = Good</text>
</g>
<!-- 0&#45;&gt;1 -->
<g id="edge1" class="edge">
<title>0&#45;&gt;1</title>
<path fill="none" stroke="black" d="M507.78,-321.36C500.83,-312.79 493.37,-303.59 486.17,-294.71"/>
<polygon fill="black" stroke="black" points="489.05,-292.71 480.04,-287.14 483.62,-297.12 489.05,-292.71"/>
<text xml:space="preserve" text-anchor="middle" x="476.48" y="-306.16" font-family="Helvetica,sans-Serif" font-size="14.00">True</text>
</g>
<!-- 8 -->
<g id="node9" class="node">
<title>8</title>
<path fill="#80c0ee" stroke="black" d="M728,-285.75C728,-285.75 613,-285.75 613,-285.75 607,-285.75 601,-279.75 601,-273.75 601,-273.75 601,-220.75 601,-220.75 601,-214.75 607,-208.75 613,-208.75 613,-208.75 728,-208.75 728,-208.75 734,-208.75 740,-214.75 740,-220.75 740,-220.75 740,-273.75 740,-273.75 740,-279.75 734,-285.75 728,-285.75"/>
<text xml:space="preserve" text-anchor="middle" x="670.5" y="-268.45" font-family="Helvetica,sans-Serif" font-size="14.00">Pclass &lt;= 2.5</text>
<text xml:space="preserve" text-anchor="middle" x="670.5" y="-251.2" font-family="Helvetica,sans-Serif" font-size="14.00">samples = 255</text>
<text xml:space="preserve" text-anchor="middle" x="670.5" y="-233.95" font-family="Helvetica,sans-Serif" font-size="14.00">value = [67, 188]</text>
<text xml:space="preserve" text-anchor="middle" x="670.5" y="-216.7" font-family="Helvetica,sans-Serif" font-size="14.00">class = Bad</text>
</g>
<!-- 0&#45;&gt;8 -->
<g id="edge8" class="edge">
<title>0&#45;&gt;8</title>
<path fill="none" stroke="black" d="M583.56,-321.36C594.28,-312.34 605.83,-302.63 616.9,-293.32"/>
<polygon fill="black" stroke="black" points="619.09,-296.06 624.49,-286.94 614.58,-290.7 619.09,-296.06"/>
<text xml:space="preserve" text-anchor="middle" x="623.49" y="-306.2" font-family="Helvetica,sans-Serif" font-size="14.00">False</text>
</g>
<!-- 2 -->
<g id="node3" class="node">
<title>2</title>
<path fill="#74baed" stroke="black" d="M266.88,-172.75C266.88,-172.75 124.12,-172.75 124.12,-172.75 118.12,-172.75 112.12,-166.75 112.12,-160.75 112.12,-160.75 112.12,-107.75 112.12,-107.75 112.12,-101.75 118.12,-95.75 124.12,-95.75 124.12,-95.75 266.88,-95.75 266.88,-95.75 272.88,-95.75 278.88,-101.75 278.88,-107.75 278.88,-107.75 278.88,-160.75 278.88,-160.75 278.88,-166.75 272.88,-172.75 266.88,-172.75"/>
<text xml:space="preserve" text-anchor="middle" x="195.5" y="-155.45" font-family="Helvetica,sans-Serif" font-size="14.00">TRUNC_SibSp &lt;= 3.0</text>
<text xml:space="preserve" text-anchor="middle" x="195.5" y="-138.2" font-family="Helvetica,sans-Serif" font-size="14.00">samples = 13</text>
<text xml:space="preserve" text-anchor="middle" x="195.5" y="-120.95" font-family="Helvetica,sans-Serif" font-size="14.00">value = [3, 10]</text>
<text xml:space="preserve" text-anchor="middle" x="195.5" y="-103.7" font-family="Helvetica,sans-Serif" font-size="14.00">class = Bad</text>
</g>
<!-- 1&#45;&gt;2 -->
<g id="edge2" class="edge">
<title>1&#45;&gt;2</title>
<path fill="none" stroke="black" d="M362.14,-208.36C338.82,-198.13 313.47,-187.01 289.75,-176.6"/>
<polygon fill="black" stroke="black" points="291.28,-173.45 280.72,-172.64 288.47,-179.86 291.28,-173.45"/>
</g>
<!-- 5 -->
<g id="node6" class="node">
<title>5</title>
<path fill="#ea9b62" stroke="black" d="M506,-172.75C506,-172.75 391,-172.75 391,-172.75 385,-172.75 379,-166.75 379,-160.75 379,-160.75 379,-107.75 379,-107.75 379,-101.75 385,-95.75 391,-95.75 391,-95.75 506,-95.75 506,-95.75 512,-95.75 518,-101.75 518,-107.75 518,-107.75 518,-160.75 518,-160.75 518,-166.75 512,-172.75 506,-172.75"/>
<text xml:space="preserve" text-anchor="middle" x="448.5" y="-155.45" font-family="Helvetica,sans-Serif" font-size="14.00">Pclass &lt;= 1.5</text>
<text xml:space="preserve" text-anchor="middle" x="448.5" y="-138.2" font-family="Helvetica,sans-Serif" font-size="14.00">samples = 444</text>
<text xml:space="preserve" text-anchor="middle" x="448.5" y="-120.95" font-family="Helvetica,sans-Serif" font-size="14.00">value = [368, 76]</text>
<text xml:space="preserve" text-anchor="middle" x="448.5" y="-103.7" font-family="Helvetica,sans-Serif" font-size="14.00">class = Good</text>
</g>
<!-- 1&#45;&gt;5 -->
<g id="edge5" class="edge">
<title>1&#45;&gt;5</title>
<path fill="none" stroke="black" d="M448.5,-208.36C448.5,-200.59 448.5,-192.31 448.5,-184.21"/>
<polygon fill="black" stroke="black" points="452,-184.48 448.5,-174.48 445,-184.48 452,-184.48"/>
</g>
<!-- 3 -->
<g id="node4" class="node">
<title>3</title>
<path fill="#399de5" stroke="black" d="M109,-59.75C109,-59.75 12,-59.75 12,-59.75 6,-59.75 0,-53.75 0,-47.75 0,-47.75 0,-12 0,-12 0,-6 6,0 12,0 12,0 109,0 109,0 115,0 121,-6 121,-12 121,-12 121,-47.75 121,-47.75 121,-53.75 115,-59.75 109,-59.75"/>
<text xml:space="preserve" text-anchor="middle" x="60.5" y="-42.45" font-family="Helvetica,sans-Serif" font-size="14.00">samples = 10</text>
<text xml:space="preserve" text-anchor="middle" x="60.5" y="-25.2" font-family="Helvetica,sans-Serif" font-size="14.00">value = [0, 10]</text>
<text xml:space="preserve" text-anchor="middle" x="60.5" y="-7.95" font-family="Helvetica,sans-Serif" font-size="14.00">class = Bad</text>
</g>
<!-- 2&#45;&gt;3 -->
<g id="edge3" class="edge">
<title>2&#45;&gt;3</title>
<path fill="none" stroke="black" d="M145.61,-95.42C133.4,-86.16 120.37,-76.27 108.26,-67.09"/>
<polygon fill="black" stroke="black" points="110.5,-64.4 100.42,-61.15 106.27,-69.98 110.5,-64.4"/>
</g>
<!-- 4 -->
<g id="node5" class="node">
<title>4</title>
<path fill="#e58139" stroke="black" d="M239.5,-59.75C239.5,-59.75 151.5,-59.75 151.5,-59.75 145.5,-59.75 139.5,-53.75 139.5,-47.75 139.5,-47.75 139.5,-12 139.5,-12 139.5,-6 145.5,0 151.5,0 151.5,0 239.5,0 239.5,0 245.5,0 251.5,-6 251.5,-12 251.5,-12 251.5,-47.75 251.5,-47.75 251.5,-53.75 245.5,-59.75 239.5,-59.75"/>
<text xml:space="preserve" text-anchor="middle" x="195.5" y="-42.45" font-family="Helvetica,sans-Serif" font-size="14.00">samples = 3</text>
<text xml:space="preserve" text-anchor="middle" x="195.5" y="-25.2" font-family="Helvetica,sans-Serif" font-size="14.00">value = [3, 0]</text>
<text xml:space="preserve" text-anchor="middle" x="195.5" y="-7.95" font-family="Helvetica,sans-Serif" font-size="14.00">class = Good</text>
</g>
<!-- 2&#45;&gt;4 -->
<g id="edge4" class="edge">
<title>2&#45;&gt;4</title>
<path fill="none" stroke="black" d="M195.5,-95.42C195.5,-87.7 195.5,-79.55 195.5,-71.74"/>
<polygon fill="black" stroke="black" points="199,-71.74 195.5,-61.74 192,-71.74 199,-71.74"/>
</g>
<!-- 6 -->
<g id="node7" class="node">
<title>6</title>
<path fill="#f3c4a2" stroke="black" d="M387.5,-59.75C387.5,-59.75 281.5,-59.75 281.5,-59.75 275.5,-59.75 269.5,-53.75 269.5,-47.75 269.5,-47.75 269.5,-12 269.5,-12 269.5,-6 275.5,0 281.5,0 281.5,0 387.5,0 387.5,0 393.5,0 399.5,-6 399.5,-12 399.5,-12 399.5,-47.75 399.5,-47.75 399.5,-53.75 393.5,-59.75 387.5,-59.75"/>
<text xml:space="preserve" text-anchor="middle" x="334.5" y="-42.45" font-family="Helvetica,sans-Serif" font-size="14.00">samples = 104</text>
<text xml:space="preserve" text-anchor="middle" x="334.5" y="-25.2" font-family="Helvetica,sans-Serif" font-size="14.00">value = [68, 36]</text>
<text xml:space="preserve" text-anchor="middle" x="334.5" y="-7.95" font-family="Helvetica,sans-Serif" font-size="14.00">class = Good</text>
</g>
<!-- 5&#45;&gt;6 -->
<g id="edge6" class="edge">
<title>5&#45;&gt;6</title>
<path fill="none" stroke="black" d="M406.37,-95.42C396.37,-86.43 385.7,-76.86 375.73,-67.9"/>
<polygon fill="black" stroke="black" points="378.09,-65.32 368.32,-61.24 373.42,-70.53 378.09,-65.32"/>
</g>
<!-- 7 -->
<g id="node8" class="node">
<title>7</title>
<path fill="#e89253" stroke="black" d="M545,-59.75C545,-59.75 430,-59.75 430,-59.75 424,-59.75 418,-53.75 418,-47.75 418,-47.75 418,-12 418,-12 418,-6 424,0 430,0 430,0 545,0 545,0 551,0 557,-6 557,-12 557,-12 557,-47.75 557,-47.75 557,-53.75 551,-59.75 545,-59.75"/>
<text xml:space="preserve" text-anchor="middle" x="487.5" y="-42.45" font-family="Helvetica,sans-Serif" font-size="14.00">samples = 340</text>
<text xml:space="preserve" text-anchor="middle" x="487.5" y="-25.2" font-family="Helvetica,sans-Serif" font-size="14.00">value = [300, 40]</text>
<text xml:space="preserve" text-anchor="middle" x="487.5" y="-7.95" font-family="Helvetica,sans-Serif" font-size="14.00">class = Good</text>
</g>
<!-- 5&#45;&gt;7 -->
<g id="edge7" class="edge">
<title>5&#45;&gt;7</title>
<path fill="none" stroke="black" d="M462.91,-95.42C465.95,-87.43 469.18,-78.98 472.25,-70.91"/>
<polygon fill="black" stroke="black" points="475.49,-72.24 475.78,-61.65 468.95,-69.74 475.49,-72.24"/>
</g>
<!-- 9 -->
<g id="node10" class="node">
<title>9</title>
<path fill="#42a2e6" stroke="black" d="M751.25,-172.75C751.25,-172.75 589.75,-172.75 589.75,-172.75 583.75,-172.75 577.75,-166.75 577.75,-160.75 577.75,-160.75 577.75,-107.75 577.75,-107.75 577.75,-101.75 583.75,-95.75 589.75,-95.75 589.75,-95.75 751.25,-95.75 751.25,-95.75 757.25,-95.75 763.25,-101.75 763.25,-107.75 763.25,-107.75 763.25,-160.75 763.25,-160.75 763.25,-166.75 757.25,-172.75 751.25,-172.75"/>
<text xml:space="preserve" text-anchor="middle" x="670.5" y="-155.45" font-family="Helvetica,sans-Serif" font-size="14.00">TRUNC_IMP_Age &lt;= 2.5</text>
<text xml:space="preserve" text-anchor="middle" x="670.5" y="-138.2" font-family="Helvetica,sans-Serif" font-size="14.00">samples = 132</text>
<text xml:space="preserve" text-anchor="middle" x="670.5" y="-120.95" font-family="Helvetica,sans-Serif" font-size="14.00">value = [6, 126]</text>
<text xml:space="preserve" text-anchor="middle" x="670.5" y="-103.7" font-family="Helvetica,sans-Serif" font-size="14.00">class = Bad</text>
</g>
<!-- 8&#45;&gt;9 -->
<g id="edge9" class="edge">
<title>8&#45;&gt;9</title>
<path fill="none" stroke="black" d="M670.5,-208.36C670.5,-200.59 670.5,-192.31 670.5,-184.21"/>
<polygon fill="black" stroke="black" points="674,-184.48 670.5,-174.48 667,-184.48 674,-184.48"/>
</g>
<!-- 12 -->
<g id="node13" class="node">
<title>12</title>
<path fill="#fcfdff" stroke="black" d="M1007.25,-172.75C1007.25,-172.75 857.75,-172.75 857.75,-172.75 851.75,-172.75 845.75,-166.75 845.75,-160.75 845.75,-160.75 845.75,-107.75 845.75,-107.75 845.75,-101.75 851.75,-95.75 857.75,-95.75 857.75,-95.75 1007.25,-95.75 1007.25,-95.75 1013.25,-95.75 1019.25,-101.75 1019.25,-107.75 1019.25,-107.75 1019.25,-160.75 1019.25,-160.75 1019.25,-166.75 1013.25,-172.75 1007.25,-172.75"/>
<text xml:space="preserve" text-anchor="middle" x="932.5" y="-155.45" font-family="Helvetica,sans-Serif" font-size="14.00">TRUNC_Fare &lt;= 23.35</text>
<text xml:space="preserve" text-anchor="middle" x="932.5" y="-138.2" font-family="Helvetica,sans-Serif" font-size="14.00">samples = 123</text>
<text xml:space="preserve" text-anchor="middle" x="932.5" y="-120.95" font-family="Helvetica,sans-Serif" font-size="14.00">value = [61.0, 62.0]</text>
<text xml:space="preserve" text-anchor="middle" x="932.5" y="-103.7" font-family="Helvetica,sans-Serif" font-size="14.00">class = Bad</text>
</g>
<!-- 8&#45;&gt;12 -->
<g id="edge12" class="edge">
<title>8&#45;&gt;12</title>
<path fill="none" stroke="black" d="M740.37,-216.65C769.38,-204.36 803.54,-189.89 834.96,-176.58"/>
<polygon fill="black" stroke="black" points="836.26,-179.83 844.1,-172.7 833.52,-173.38 836.26,-179.83"/>
</g>
<!-- 10 -->
<g id="node11" class="node">
<title>10</title>
<path fill="#ffffff" stroke="black" d="M675.5,-59.75C675.5,-59.75 587.5,-59.75 587.5,-59.75 581.5,-59.75 575.5,-53.75 575.5,-47.75 575.5,-47.75 575.5,-12 575.5,-12 575.5,-6 581.5,0 587.5,0 587.5,0 675.5,0 675.5,0 681.5,0 687.5,-6 687.5,-12 687.5,-12 687.5,-47.75 687.5,-47.75 687.5,-53.75 681.5,-59.75 675.5,-59.75"/>
<text xml:space="preserve" text-anchor="middle" x="631.5" y="-42.45" font-family="Helvetica,sans-Serif" font-size="14.00">samples = 2</text>
<text xml:space="preserve" text-anchor="middle" x="631.5" y="-25.2" font-family="Helvetica,sans-Serif" font-size="14.00">value = [1, 1]</text>
<text xml:space="preserve" text-anchor="middle" x="631.5" y="-7.95" font-family="Helvetica,sans-Serif" font-size="14.00">class = Good</text>
</g>
<!-- 9&#45;&gt;10 -->
<g id="edge10" class="edge">
<title>9&#45;&gt;10</title>
<path fill="none" stroke="black" d="M656.09,-95.42C653.05,-87.43 649.82,-78.98 646.75,-70.91"/>
<polygon fill="black" stroke="black" points="650.05,-69.74 643.22,-61.65 643.51,-72.24 650.05,-69.74"/>
</g>
<!-- 11 -->
<g id="node12" class="node">
<title>11</title>
<path fill="#41a1e6" stroke="black" d="M823.5,-59.75C823.5,-59.75 717.5,-59.75 717.5,-59.75 711.5,-59.75 705.5,-53.75 705.5,-47.75 705.5,-47.75 705.5,-12 705.5,-12 705.5,-6 711.5,0 717.5,0 717.5,0 823.5,0 823.5,0 829.5,0 835.5,-6 835.5,-12 835.5,-12 835.5,-47.75 835.5,-47.75 835.5,-53.75 829.5,-59.75 823.5,-59.75"/>
<text xml:space="preserve" text-anchor="middle" x="770.5" y="-42.45" font-family="Helvetica,sans-Serif" font-size="14.00">samples = 130</text>
<text xml:space="preserve" text-anchor="middle" x="770.5" y="-25.2" font-family="Helvetica,sans-Serif" font-size="14.00">value = [5, 125]</text>
<text xml:space="preserve" text-anchor="middle" x="770.5" y="-7.95" font-family="Helvetica,sans-Serif" font-size="14.00">class = Bad</text>
</g>
<!-- 9&#45;&gt;11 -->
<g id="edge11" class="edge">
<title>9&#45;&gt;11</title>
<path fill="none" stroke="black" d="M707.45,-95.42C716.05,-86.61 725.21,-77.24 733.8,-68.45"/>
<polygon fill="black" stroke="black" points="736.28,-70.91 740.77,-61.31 731.28,-66.02 736.28,-70.91"/>
</g>
<!-- 13 -->
<g id="node14" class="node">
<title>13</title>
<path fill="#c9e4f8" stroke="black" d="M999,-59.75C999,-59.75 866,-59.75 866,-59.75 860,-59.75 854,-53.75 854,-47.75 854,-47.75 854,-12 854,-12 854,-6 860,0 866,0 866,0 999,0 999,0 1005,0 1011,-6 1011,-12 1011,-12 1011,-47.75 1011,-47.75 1011,-53.75 1005,-59.75 999,-59.75"/>
<text xml:space="preserve" text-anchor="middle" x="932.5" y="-42.45" font-family="Helvetica,sans-Serif" font-size="14.00">samples = 102</text>
<text xml:space="preserve" text-anchor="middle" x="932.5" y="-25.2" font-family="Helvetica,sans-Serif" font-size="14.00">value = [43.0, 59.0]</text>
<text xml:space="preserve" text-anchor="middle" x="932.5" y="-7.95" font-family="Helvetica,sans-Serif" font-size="14.00">class = Bad</text>
</g>
<!-- 12&#45;&gt;13 -->
<g id="edge13" class="edge">
<title>12&#45;&gt;13</title>
<path fill="none" stroke="black" d="M932.5,-95.42C932.5,-87.7 932.5,-79.55 932.5,-71.74"/>
<polygon fill="black" stroke="black" points="936,-71.74 932.5,-61.74 929,-71.74 936,-71.74"/>
</g>
<!-- 14 -->
<g id="node15" class="node">
<title>14</title>
<path fill="#e9965a" stroke="black" d="M1138,-59.75C1138,-59.75 1041,-59.75 1041,-59.75 1035,-59.75 1029,-53.75 1029,-47.75 1029,-47.75 1029,-12 1029,-12 1029,-6 1035,0 1041,0 1041,0 1138,0 1138,0 1144,0 1150,-6 1150,-12 1150,-12 1150,-47.75 1150,-47.75 1150,-53.75 1144,-59.75 1138,-59.75"/>
<text xml:space="preserve" text-anchor="middle" x="1089.5" y="-42.45" font-family="Helvetica,sans-Serif" font-size="14.00">samples = 21</text>
<text xml:space="preserve" text-anchor="middle" x="1089.5" y="-25.2" font-family="Helvetica,sans-Serif" font-size="14.00">value = [18, 3]</text>
<text xml:space="preserve" text-anchor="middle" x="1089.5" y="-7.95" font-family="Helvetica,sans-Serif" font-size="14.00">class = Good</text>
</g>
<!-- 12&#45;&gt;14 -->
<g id="edge14" class="edge">
<title>12&#45;&gt;14</title>
<path fill="none" stroke="black" d="M990.51,-95.42C1005.13,-85.89 1020.77,-75.69 1035.2,-66.28"/>
<polygon fill="black" stroke="black" points="1036.75,-69.45 1043.21,-61.06 1032.92,-63.59 1036.75,-69.45"/>
</g>
</g>
</svg>
